PathFileType	4	(X/Y/Z)	C:\Users\WrightLab\Desktop\Jo\P1.2Trial10.trc
DataRate	CameraRate	NumFrames	NumMarkers	Units	OrigDataRate	OrigDataStartFrame	OrigNumFrames
100.00	100.00	       9	19	mm	100.00	135	       539
Frame#	Time	Headset_Front			Headset_Back			Headset_Left			Headset_Right			Left_Shoulder			Right_Shoulder			Sternum			C7			Left Elbow			Right Elbow			Left Wrist			Right Wrist			Left ASIS			Right ASIS			S2			Left Knee			Right Knee			Left Ankle			Right Ankle			
		X1	Y1	Z1	X2	Y2	Z2	X3	Y3	Z3	X4	Y4	Z4	X5	Y5	Z5	X6	Y6	Z6	X7	Y7	Z7	X8	Y8	Z8	X9	Y9	Z9	X10	Y10	Z10	X11	Y11	Z11	X12	Y12	Z12	X13	Y13	Z13	X14	Y14	Z14	X15	Y15	Z15	X16	Y16	Z16	X17	Y17	Z17	X18	Y18	Z18	X19	Y19	Z19	

135	1.340	-605.54504	1350.45813	-530.94415	-634.83405	1468.27478	-813.50586	-513.49402	1402.04626	-714.27637	-724.37213	1393.38770	-621.60040	-423.25568	1187.09949	-750.45087	-848.43243	1210.49353	-744.39478	-642.35626	1140.91968	-624.61505	-633.11365	1258.02808	-860.14594	-384.44730	906.56262	-835.72180	-917.46368	957.92456	-783.47064	-290.59665	696.26764	-763.02979	-980.17859	713.28149	-689.21533	-555.21545	822.98767	-604.57544	-810.29883	824.95905	-684.76166	-596.18146	866.90161	-900.84558	-634.09766	450.54037	-516.07678	-854.87390	397.80841	-799.41748	-619.19781	75.50612	-530.69116				
136	1.350	-605.89124	1352.31995	-520.58435	-636.23242	1470.31201	-804.14789	-514.34503	1404.22681	-706.14410	-724.58954	1395.81677	-610.71509	-424.22086	1189.10742	-738.80933	-849.35010	1212.20203	-732.18280	-642.18018	1142.27905	-612.23273	-635.13538	1259.75806	-849.76752	-386.23511	908.33905	-824.02551	-918.58643	960.31738	-772.47498	-292.91742	697.84045	-749.87549	-981.22107	714.34802	-682.36792	-554.76318	825.44598	-593.82477	-808.68359	828.79395	-667.71198	-597.95020	868.08051	-889.37103	-632.04474	451.63098	-507.80014	-863.98853	401.70743	-779.32745	-617.74744	74.16369	-530.70239				
137	1.360	-604.12799	1358.94006	-508.55685	-637.68896	1472.36377	-793.71082	-515.04773	1406.02100	-696.82495	-724.97321	1397.90784	-600.66412	-425.53247	1191.30383	-730.35175	-850.50787	1213.77454	-719.86749	-642.52423	1145.01892	-603.10144	-637.18286	1261.56958	-839.38794	-387.80914	910.28210	-813.65881	-919.72180	962.65991	-762.32904	-293.75055	699.95197	-735.98120	-982.54541	715.38080	-674.73950	-552.60175	827.04944	-583.91364	-808.99561	830.75537	-655.36652	-599.54102	870.02094	-879.73267	-628.87701	452.08459	-500.15448	-871.88745	404.37283	-758.55743	-617.04980	72.35300	-529.63348				
138	1.370	-603.82623	1359.13721	-501.18820	-639.40900	1474.44946	-784.24426	-516.28174	1408.74536	-689.70325	-723.29352	1400.48865	-589.12250	-427.01349	1193.81714	-720.14111	-851.95660	1215.50330	-709.05682	-641.75684	1146.58813	-592.72723	-639.26605	1263.74792	-829.69214	-389.28247	911.80280	-802.17981	-921.38953	964.11676	-751.18311	-295.77576	702.24457	-723.65936	-984.27209	716.92621	-667.49084	-551.26324	829.39740	-574.06342	-808.58868	830.78815	-648.95319	-601.23102	871.30206	-869.12933	-625.87799	450.92270	-493.22162	-879.60162	407.41339	-736.80090	-616.96002	71.88940	-530.30121				
139	1.380	-617.94135	1349.23535	-537.93585	-641.05695	1476.82751	-775.37152	-517.19427	1410.08276	-678.52246	-723.79572	1402.84778	-579.23547	-427.62238	1196.67102	-712.80103	-853.02893	1217.66309	-697.79456	-642.94299	1148.26465	-582.45563	-641.41577	1265.57971	-819.28296	-390.23376	914.12933	-791.98779	-922.78632	966.13971	-740.12537	-297.19601	703.78333	-709.50146	-986.41296	718.54596	-659.94592	-548.77631	831.62744	-565.19812	-808.05945	834.39783	-634.00201	-602.67480	873.26202	-859.27850	-622.99524	448.21231	-488.72116	-885.74854	410.59955	-714.99872	-617.04083	71.32952	-531.25427				
140	1.390	-605.88110	1362.63062	-483.42752	-642.92578	1478.84546	-765.96899	-518.67218	1412.97449	-672.01056	-724.20746	1405.11023	-568.91528	-429.06766	1199.01831	-704.62518	-854.37457	1219.88245	-686.94379	-643.49188	1150.61646	-573.30475	-643.57196	1267.74219	-809.96381	-390.95978	916.54736	-782.39752	-924.69843	967.48962	-728.84064	-299.15485	706.74023	-695.46979	-988.80225	719.91187	-650.69208	-546.27820	833.71698	-556.39423	-808.03497	834.46930	-623.85992	-604.41742	874.79663	-849.15332	-619.96265	447.42453	-484.03439	-892.11383	414.15021	-692.28546	-618.54541	70.75335	-531.35663				
141	1.400	-607.14417	1364.79602	-480.07748	-644.79657	1480.95850	-756.64246	-520.04547	1415.14539	-662.98956	-724.40247	1407.56873	-559.17151	-430.45633	1201.88391	-695.16711	-856.93829	1221.35840	-677.20886	-644.47144	1153.09937	-563.65875	-645.82819	1269.46240	-800.85388	-391.32596	917.98328	-769.09229	-926.62750	969.15594	-717.86615	-299.88675	709.16217	-680.87592	-991.20776	721.78326	-642.55212	-543.95367	836.25604	-545.48822	-808.87891	835.95959	-615.57446	-605.87823	876.71539	-839.29144	-613.60602	445.00211	-479.20578	-896.98920	417.48059	-668.91339	-618.29956	69.10033	-531.75897	-806.10016	174.12404	-928.26556	
142	1.410	-606.67780	1367.47290	-465.05893	-646.78503	1482.92639	-747.15179	-521.26862	1417.51843	-654.79053	-725.30145	1409.49219	-549.02606	-432.05502	1204.64539	-686.95117	-857.94873	1222.52979	-666.78992	-645.00964	1155.57483	-554.59381	-647.76721	1271.54297	-791.07092	-391.25070	920.47290	-758.78101	-928.50500	970.98053	-707.91174	-300.50577	713.28766	-666.56036	-993.88110	724.28284	-633.11969	-541.96082	838.93994	-537.31232	-807.14563	838.28003	-601.19659	-607.60693	878.73804	-829.86145	-609.51550	441.93759	-477.15457	-901.47394	421.09280	-646.11871	-618.11871	68.10603	-532.50146	-811.29102	180.08025	-907.92725	
143	1.420	-606.86066	1369.67615	-456.14398	-648.74365	1485.16565	-738.29877	-522.94427	1419.85205	-645.19122	-727.75378	1412.79736	-540.50555	-433.25388	1207.65576	-678.81805	-859.42957	1224.38293	-656.97021	-645.25336	1157.92297	-544.97626	-649.92688	1273.49011	-782.56458	-390.65448	922.93359	-749.75049	-930.41162	972.62891	-697.14410	-302.34253	716.20313	-652.14575	-996.82263	726.08569	-623.21356	-539.93799	841.38458	-528.62836	-807.31012	840.58459	-589.36652	-609.38116	880.81726	-820.44257	-604.78870	439.89124	-475.29163	-905.53845	425.17636	-622.35120	-617.49554	67.35289	-533.19849	-816.84979	185.06648	-885.98895	
